<?xml version="1.0" standalone="no"?>
<!DOCTYPE svg PUBLIC "-//W3C//DTD SVG 20010904//EN"
 "http://www.w3.org/TR/2001/REC-SVG-20010904/DTD/svg10.dtd">
<svg version="1.0" xmlns="http://www.w3.org/2000/svg"
 width="800.000000pt" height="800.000000pt" viewBox="0 0 800.000000 800.000000"
 preserveAspectRatio="xMidYMid meet">
<metadata>
Created by potrace 1.11, written by Peter Selinger 2001-2013
</metadata>
<g transform="translate(0.000000,800.000000) scale(0.100000,-0.100000)"
fill="#000000" stroke="none">
<path d="M3750 7564 c-647 -55 -1205 -247 -1720 -589 -250 -167 -449 -335
-652 -555 -466 -502 -787 -1151 -897 -1815 -41 -251 -46 -307 -46 -605 0 -297
5 -355 46 -603 113 -677 441 -1338 906 -1828 182 -191 291 -288 478 -429 452
-339 985 -568 1530 -659 251 -41 307 -46 605 -46 297 0 355 5 603 46 521 87
1041 303 1472 613 280 201 575 489 779 761 342 455 573 991 665 1542 41 248
46 306 46 603 0 298 -5 354 -46 605 -106 636 -412 1275 -841 1755 -398 445
-858 765 -1408 978 -252 97 -511 162 -836 207 -104 15 -580 28 -684 19z m565
-155 c156 -12 366 -48 530 -89 1315 -334 2314 -1422 2534 -2760 31 -189 42
-334 42 -560 0 -226 -11 -371 -42 -560 -252 -1531 -1513 -2706 -3059 -2850
-148 -14 -492 -14 -640 0 -1546 144 -2807 1319 -3059 2850 -31 189 -42 334
-42 560 0 396 50 715 171 1080 335 1014 1144 1827 2155 2166 457 153 894 204
1410 163z"/>
<path d="M2500 4000 l0 -2250 500 0 500 0 0 750 0 750 1000 0 1000 0 0 500 0
500 -1000 0 -1000 0 0 500 0 500 1000 0 1000 0 0 500 0 500 -1500 0 -1500 0 0
-2250z"/>
</g>
</svg>
